<svg xmlns="http://www.w3.org/2000/svg" width="512" height="512" fill="none" viewBox="0 0 512 512"><path fill="#bf42f6" d="M346.71 255.306c.788.006 1.577.013 3.124.059 4.006.027 7.253.015 10.501.003 33.391.022 66.783.028 100.175.078 8.174.013 16.349.279 24.522.209 3.084-.026 4.596.75 4.356 4.156-.293 4.157-.31 8.343-.259 12.513.049 3.964-1.248 5.539-5.679 5.524-48.85-.158-97.701-.071-146.552-.056-22.107.007-44.214 0-66.321 0h-5.43v7.117h223.011c-1.553 8.254-2.894 15.76-4.475 23.215-.17.802-1.666 1.617-2.685 1.87-1.312.327-2.763.099-4.155.099H265.099v6.701h216.666c-1.609 5.425-2.887 10.074-4.367 14.658-2.758 8.54-2.807 8.524-11.564 8.524-64.929 0-129.859.014-194.788-.04-3.401-.003-6.19.251-4.758 4.652.349 1.075 1.875 2.026 3.071 2.491 1.075.418 2.439.092 3.676.092l191.542.001h7.17c-3.533 7.29-6.399 13.72-9.834 19.83-.651 1.157-3.562 1.448-5.432 1.454-27.981.088-55.963.061-83.944.061-31.692 0-63.384.005-95.075-.008-2.61-.002-5.219-.124-8.53-.021-3.11.173-5.518.177-7.926.181-.849-7.032-2.289-14.051-2.44-21.098-.547-25.616-.773-51.242-.844-76.864-.014-4.88 1.228-9.763 2.52-14.927 2.88-.296 5.132-.31 7.81-.259 22.492.021 44.557-.024 67.034-.066 4.149-.049 7.886-.099 11.624-.149"/><path fill="#ff44c4" d="M168.124 257.114v-9.301c-2.407 0-4.67-.001-6.933.001-44.522.025-89.044.01-133.566.146-3.858.012-5.358-1.03-4.744-5 .683-4.418 1.254-8.885 1.393-13.346.106-3.386 1.603-4.005 4.608-4.012 45.9-.11 91.801-.344 137.702-.452 3.865-.009 6.842-.344 6.032-5.831H25.546c1.39-6.599 2.354-12.681 4.138-18.513.413-1.35 3.628-2.615 5.555-2.618 47.458-.084 94.917-.01 142.375.109 3.275.008 5.855-.38 6.138-5.045H31.147c3.43-9.311 6.348-17.71 9.74-25.913.483-1.166 3.265-1.942 4.987-1.95 24.582-.124 49.165-.21 73.745.014 5.283.048 8.073-2.583 11.128-7.248h-86.45c4.35-7.835 8.002-14.753 12.077-21.412.67-1.096 3.197-1.473 4.868-1.478 30.611-.083 61.226-.291 91.832.113 7.185.094 12.719-2.619 18.321-6.774H61.385c2.592-3.805 4.355-6.546 6.268-9.178 8.88-12.216 8.896-12.209 24.069-12.21q60.991-.002 121.982-.001h5.885c-3.968-4.128-7.007-6.966-12.321-6.944-38.959.165-77.92.09-116.88.09H85.03l-.741-1.31c3.832-3.852 7.564-7.81 11.514-11.537 11.456-10.807 11.495-10.996 27.246-10.717 23.209.411 45.103 6.8 66.234 15.885 5.657 2.432 10.56 3.715 16.604.944 4.726-2.166 10.217-2.664 16.034-3.521-4.411 8.139.887 12.041 5.52 16.414 5.73 5.408 11.223 11.07 16.751 16.688 1.165 1.185 2.035 2.659 3.685 4.857-2.256.128-3.665.274-5.075.275-9.739.008-19.489.286-29.214-.085-28.045-1.07-51.592 9.244-71.602 28.209-7.152 6.778-13.525 14.379-20.212 21.643-.683.742-1.079 1.748-2.209 3.632 33.94-11.926 65.876-27.377 101.589-28.637l.859 1.395c-4.228 4.943-8.188 10.148-12.73 14.783-18.091 18.461-28.905 40.673-33.892 65.773-1.402 7.057-1.306 14.412-2.504 21.941-1.992.248-3.377.184-4.762.121m19.995-91.726c3.865.004 7.763-.315 11.585.09 5.562.589 8.92-2.178 12.525-7.52-9.134 2.152-17.144 4.039-25.139 5.988-.008.002.209.928 1.029 1.442"/><path fill="#bf43f5" d="M167.719 257.136c1.79.041 3.175.105 4.979.185.569 3.091.719 6.166.87 9.24l1.623.577c2.3-3.392 4.599-6.785 7.467-10.458 2.456-.382 4.343-.483 6.573-.598 1.405-.133 2.466-.342 3.53-.356 12.08-.162 24.16-.295 36.693-.368 3.463.111 6.473.155 9.484.2-1.12 6.677-2.306 13.345-3.347 20.035-4.715 30.285-5.404 60.697-3.186 91.651-2.469.746-4.517 1.048-6.565 1.35-56.117-.025-112.236-.135-168.353.061-5.334.018-8.298-1.559-10.185-6.415-1.874-4.824-4.295-9.436-6.907-15.069h17.147c53.955 0 107.909.013 161.863-.044 2.026-.002 4.864 1.218 5.327-2.599.469-3.862-1.271-4.625-4.781-4.616-38.803.103-77.607.061-116.411.068-20.405.003-40.811-.065-61.215.125-3.545.033-5.36-1.044-6.324-4.419-1.642-5.75-3.577-11.416-5.879-18.659 65.363-.259 129.677-.027 194.424-.144l.372-6.533c-1.901-.099-3.398-.244-4.896-.245-58.283-.032-116.565-.056-174.848-.06-4.48 0-8.964.279-13.439.163-1.138-.029-3.078-.897-3.247-1.681-1.676-7.766-3.056-15.595-4.624-23.961 8.433 0 15.808-.031 23.182.02 1.998.014 3.995.4 5.992.401 55.964.023 111.928.02 167.892.017 6.075 0 6.307-.256 6.266-7.198H23.431c-.284-6.643-.72-12.739-.592-18.823.016-.786 2.94-2.144 4.53-2.165 15.149-.197 30.3-.177 45.45-.191 17.623-.016 35.248-.072 52.871.018 13.876.07 27.75.335 42.029.491"/><path fill="#985ded" d="M225.868 369.021c2.02-.729 4.068-1.031 6.551-1.351 2.672 17.851 4.169 35.853 7.334 53.556 4.047 22.64 9.785 44.94 18.63 66.298.29.699.498 1.433.742 2.142-25.39 10.452-124.622-22.609-146.929-49.453h122.669c.302-4.81-.85-6.915-5.85-6.891-39.883.193-79.768.055-119.652.182-4.441.014-8.036-.845-11.208-4.17-6.87-7.203-13.99-14.166-21.008-21.228l.69-1.319H229.63l-1.24-7.289h-5.726c-42.821 0-85.642.011-128.464-.013-6.18-.003-12.371-.428-18.537-.173-3.704.154-6.14-1.066-8.104-4.073-4.111-6.292-8.367-12.489-13.256-19.755h171.593c0-2.433 0-4.234-.027-6.463m35.103.062c2.442-.418 4.85-.422 7.641-.431.482 1.987.581 3.979.706 6.499H457.62c-3.126 4.951-5.544 8.946-8.123 12.835-7.64 11.521-7.665 11.508-21.226 11.509l-147.5.003h-5.407c-.602 6.688-.15 7.214 5.824 7.214q73.75.004 147.5.004h6.891c-4.048 4.533-7.454 7.812-10.233 11.556-9.047 12.19-20.575 16.124-35.967 15.542-33.039-1.25-66.159-.384-99.246-.384h-5.45c-.275 5.77.583 6.774 5.594 6.776 34.478.012 68.957.006 103.435.007h5.302l.443 1.274c-3.495 2.62-6.91 5.358-10.5 7.842-23.505 16.265-49.192 27.744-76.893 34.696-3.263.819-6.763 1.374-10.069 1.085-1.874-.164-4.144-1.915-5.266-3.597-9.503-14.258-15.474-30.133-21.055-46.227-7.418-21.394-11.59-43.465-14.702-66.203"/><path fill="#ff43c4" d="M360.319 254.985c-3.232.395-6.479.407-10.189.359 2.612-14.328 2.295-28.523-1.162-42.703-4.74-19.439-15.808-34.254-32.502-45.039-.639-.413-1.27-.839-1.852-2.137h52.547l.213-1.506c-7.026-2.665-13.978-5.752-21.733-5.819-15.455-.136-30.914.047-46.369-.12-3.092-.034-6.173-1.044-9.202-2.411 18.374-7.385 37.172-6.583 56.061-3.6 19.128 3.021 35.771 12.957 54.614 20.622l-3.662-6.95c1.846-.148 3.252-.359 4.658-.36 21.485-.021 42.97.048 64.454-.082 3.262-.019 5.062.848 6.121 4.101 2.319 7.128 5.012 14.134 7.891 22.129h-127.22c.144 4.537 2.105 5.796 5.897 5.783q43.588-.154 87.175-.028c10.803.031 21.607.309 32.402.688 1.327.047 3.486 1.183 3.763 2.215 1.549 5.774 2.638 11.671 4.021 18.169H361.127c-.548 6.29-.254 6.61 5.207 6.619 38.949.061 77.898.158 116.847.146 2.863-.001 4.211.672 4.397 3.772.304 5.076.956 10.136 1.609 15.183.414 3.199-.637 4.443-4.005 4.328-6.635-.228-13.283-.105-19.926-.106q-49.152-.005-98.304.001c-6.266.001-6.266.007-6.633 6.746"/><path fill="#ff42c3" d="M214.837 27.347c41.832-7.02 81.069-2.12 103 5.453-3.084 7.222-6.153 14.42-9.231 21.612-1.64 3.833-3.549 7.574-4.869 11.513-1.091 3.256-2.992 4.06-6.217 4.042-22.092-.119-44.185-.062-67.454-.062 3.94 4.046 6.873 7.296 12.308 7.245 16.689-.157 33.381-.056 50.072-.055h6.745c-3.661 6.1-6.056 11.84-9.975 16.217-6.139 6.856-13.44 12.659-19.972 19.184-2.516 2.514-3.687 2.416-6.101-.229-9.873-10.813-19.809-21.593-30.196-31.908-11.454-11.376-25.983-16.088-41.742-17.908-14.011-1.618-27.312.965-40.451 5.507a34.7 34.7 0 0 1-9.886 1.86c-7.248.275-14.513.085-21.995-.508 28.501-21.58 60.452-35.31 95.964-41.963m53.746 77.311 3.605-4.283h-11.056c1.525 2.155 2.339 3.846 3.653 4.931.643.531 2.216-.065 3.798-.648"/><path fill="#ff44c4" d="M377.152 144.943c-12.092-9.869-26.287-13.386-40.919-15.513-16.956-2.465-33.583-1.51-50.074 5.653.952-1.742 1.722-3.617 2.884-5.206 15.646-21.395 34.923-38.76 58.357-51.192 3.545-1.881 8.365-1.78 12.607-1.849 13.445-.22 26.898-.165 40.345-.002 2.017.024 4.514.652 5.947 1.938 7.01 6.292 13.741 12.894 20.545 19.414.386.37.542.98 1.172 2.175h-5.468c-30.918 0-61.837.116-92.753-.114-5.213-.039-8.095 2.606-11.98 6.969h6.295c35.092-.001 70.184.065 105.275-.091 4.005-.018 6.738 1.186 8.994 4.365 3.728 5.252 7.642 10.372 12.234 16.566h-90.207l-.153 1.134c6.582 2.444 12.387 6.339 20.175 6.183 23.179-.463 46.374-.087 69.561-.245 3.754-.026 6.054 1.177 7.725 4.48 2.979 5.887 6.211 11.646 9.711 18.154-2.304.15-3.753.325-5.203.326-22.415.017-44.831-.042-67.246.074-3.19.016-5.54-.802-7.705-3.211-3.093-3.441-6.561-6.545-10.119-10.008M267.626 255.455a972 972 0 0 1-7.18.028c2.056-26.604 4.319-53.217 12.215-78.952 1.17-3.813 2.458-5.484 6.241-2.773 3.757 2.69 8.105 4.741 11.346 7.934 22.076 21.743 42.878 44.52 56.347 73.308-3.623.356-7.36.406-11.542.092-1.222-4.579-3.365-6.359-8.021-6.284-17.697.286-35.402.122-53.104.126h-6.302zm2.176-30.951h44.834l.519-1.678c-1.826-.906-3.637-2.562-5.479-2.597-12.466-.234-24.937-.104-37.407-.144-2.831-.009-4.108.992-2.467 4.419m10.378-31.312c-3.285-.223-6.209-.007-5.651 4.577h16.788c-2.211-5.078-6.298-4.716-11.137-4.577m-41.043 62.082c-3.21.24-6.22.195-9.566-.301-.214-2.054-.093-3.657.08-5.95-11.47 0-22.329-.006-33.188.003-5.917.004-6.716.761-7.574 7.07-1.888.101-3.775.202-6.063.302 4.551-9.736 8.81-19.906 14.604-29.11 10.304-16.372 21.983-31.76 37.616-43.656 7.217-5.492 15.096-9.592 23.847-11.977 1.13-.308 2.333-.345 4.833-.691-10.43 27.968-18.906 55.583-24.589 84.31m-25.72-36.778c-4.442-.439-5.459 2.888-7.32 6.624 9.882 0 19.096-.135 28.302.061 4.188.089 5.338-1.767 4.777-6.598-8.393 0-16.684 0-25.759-.087m33.855-22.914c-1.112-.66-2.178-1.777-3.343-1.89-2.903-.28-5.86.032-8.779-.147-3.761-.229-5.839 1.749-7.932 5.507 6.203 0 11.685.126 17.15-.12.95-.043 1.829-1.662 2.904-3.35m96.491-154.518c17.922 7.326 34.473 16.35 49.706 28.527-30.671-2.027-59.888 3.402-88.579 15.8.855-4.673 2.395-7.566 6.408-8.806 5.86-1.811 11.674-3.77 17.472-6.488h-16.478c5.867-11.505 11.161-22.041 16.71-32.442.395-.74 2.807-.966 4.029-.597 3.534 1.07 6.939 2.564 10.732 4.006"/></svg>